<?xml version="1.0" encoding="utf-8"?>
<!-- Generator: Adobe Illustrator 18.1.1, SVG Export Plug-In . SVG Version: 6.00 Build 0)  -->
<!DOCTYPE svg PUBLIC "-//W3C//DTD SVG 1.1//EN" "http://www.w3.org/Graphics/SVG/1.1/DTD/svg11.dtd">
<svg version="1.1" id="Layer_2" xmlns="http://www.w3.org/2000/svg" xmlns:xlink="http://www.w3.org/1999/xlink" x="0px" y="0px"
	 viewBox="0 0 98.3 231.3" enable-background="new 0 0 98.3 231.3" xml:space="preserve">
<g>
	
		<rect x="1.5" y="137.7" fill="#FFFFFF" stroke="#000000" stroke-width="3.0033" stroke-miterlimit="10" width="95.3" height="92.1"/>
	<rect x="7.5" y="101.9" fill="#FFFFFF" stroke="#000000" stroke-width="3" stroke-miterlimit="10" width="83.3" height="35.8"/>
	<rect x="21.8" y="40" fill="#FFFFFF" stroke="#000000" stroke-width="3" stroke-miterlimit="10" width="55" height="61.8"/>
	<line fill="none" stroke="#000000" stroke-width="3" stroke-miterlimit="10" x1="9.1" y1="143.8" x2="9.1" y2="162.9"/>
	<line fill="none" stroke="#000000" stroke-width="3" stroke-miterlimit="10" x1="19.1" y1="143.8" x2="19.1" y2="162.9"/>
	<line fill="none" stroke="#000000" stroke-width="3" stroke-miterlimit="10" x1="29.2" y1="143.8" x2="29.2" y2="162.9"/>
	<line fill="none" stroke="#000000" stroke-width="3" stroke-miterlimit="10" x1="39.2" y1="143.8" x2="39.2" y2="162.9"/>
	<line fill="none" stroke="#000000" stroke-width="3" stroke-miterlimit="10" x1="49.2" y1="143.8" x2="49.2" y2="162.9"/>
	<line fill="none" stroke="#000000" stroke-width="3" stroke-miterlimit="10" x1="59.2" y1="143.8" x2="59.2" y2="162.9"/>
	<line fill="none" stroke="#000000" stroke-width="3" stroke-miterlimit="10" x1="69.2" y1="143.8" x2="69.2" y2="162.9"/>
	<line fill="none" stroke="#000000" stroke-width="3" stroke-miterlimit="10" x1="79.2" y1="143.8" x2="79.2" y2="162.9"/>
	<line fill="none" stroke="#000000" stroke-width="3" stroke-miterlimit="10" x1="89.2" y1="143.8" x2="89.2" y2="162.9"/>
	<line fill="none" stroke="#000000" stroke-width="3" stroke-miterlimit="10" x1="9.1" y1="168.8" x2="9.1" y2="187.9"/>
	<line fill="none" stroke="#000000" stroke-width="3" stroke-miterlimit="10" x1="19.1" y1="168.8" x2="19.1" y2="187.9"/>
	<line fill="none" stroke="#000000" stroke-width="3" stroke-miterlimit="10" x1="29.2" y1="168.8" x2="29.2" y2="187.9"/>
	<line fill="none" stroke="#000000" stroke-width="3" stroke-miterlimit="10" x1="39.2" y1="168.8" x2="39.2" y2="187.9"/>
	<line fill="none" stroke="#000000" stroke-width="3" stroke-miterlimit="10" x1="49.2" y1="168.8" x2="49.2" y2="187.9"/>
	<line fill="none" stroke="#000000" stroke-width="3" stroke-miterlimit="10" x1="59.2" y1="168.8" x2="59.2" y2="187.9"/>
	<line fill="none" stroke="#000000" stroke-width="3" stroke-miterlimit="10" x1="69.2" y1="168.8" x2="69.2" y2="187.9"/>
	<line fill="none" stroke="#000000" stroke-width="3" stroke-miterlimit="10" x1="79.2" y1="168.8" x2="79.2" y2="187.9"/>
	<line fill="none" stroke="#000000" stroke-width="3" stroke-miterlimit="10" x1="89.2" y1="168.8" x2="89.2" y2="187.9"/>
	<line fill="none" stroke="#000000" stroke-width="3" stroke-miterlimit="10" x1="9.1" y1="200.8" x2="9.1" y2="219.9"/>
	<line fill="none" stroke="#000000" stroke-width="3" stroke-miterlimit="10" x1="19.1" y1="200.8" x2="19.1" y2="219.9"/>
	<line fill="none" stroke="#000000" stroke-width="3" stroke-miterlimit="10" x1="29.2" y1="195.2" x2="29.2" y2="229.8"/>
	<line fill="none" stroke="#000000" stroke-width="3" stroke-miterlimit="10" x1="69.2" y1="195.2" x2="69.2" y2="229.7"/>
	<line fill="none" stroke="#000000" stroke-width="3" stroke-miterlimit="10" x1="79.2" y1="200.8" x2="79.2" y2="219.9"/>
	<line fill="none" stroke="#000000" stroke-width="3" stroke-miterlimit="10" x1="89.2" y1="200.8" x2="89.2" y2="219.9"/>
	<line fill="none" stroke="#000000" stroke-width="3.1615" stroke-miterlimit="10" x1="1.5" y1="195.2" x2="96.8" y2="195.2"/>
	
		<rect x="39.2" y="203.7" fill="none" stroke="#000000" stroke-width="2.9628" stroke-linecap="round" stroke-miterlimit="10" width="9.3" height="26.1"/>
	<rect x="45.3" y="215.5" width="2.3" height="5"/>
	
		<rect x="48.5" y="203.7" fill="none" stroke="#000000" stroke-width="2.9628" stroke-linecap="round" stroke-miterlimit="10" width="9.3" height="26.1"/>
	<rect x="49.3" y="215.5" width="2.3" height="5"/>
	<rect x="17.8" y="109.7" fill="none" stroke="#000000" stroke-width="3" stroke-miterlimit="10" width="6.9" height="6.9"/>
	<rect x="31.9" y="109.7" fill="none" stroke="#000000" stroke-width="3" stroke-miterlimit="10" width="6.9" height="6.9"/>
	<rect x="45.9" y="109.7" fill="none" stroke="#000000" stroke-width="3" stroke-miterlimit="10" width="6.9" height="6.9"/>
	<rect x="59.9" y="109.7" fill="none" stroke="#000000" stroke-width="3" stroke-miterlimit="10" width="6.9" height="6.9"/>
	<rect x="73.9" y="109.7" fill="none" stroke="#000000" stroke-width="3" stroke-miterlimit="10" width="6.9" height="6.9"/>
	<rect x="17.8" y="123.8" fill="none" stroke="#000000" stroke-width="3" stroke-miterlimit="10" width="6.9" height="6.9"/>
	<rect x="31.9" y="123.8" fill="none" stroke="#000000" stroke-width="3" stroke-miterlimit="10" width="6.9" height="6.9"/>
	<rect x="45.9" y="123.8" fill="none" stroke="#000000" stroke-width="3" stroke-miterlimit="10" width="6.9" height="6.9"/>
	<rect x="59.9" y="123.8" fill="none" stroke="#000000" stroke-width="3" stroke-miterlimit="10" width="6.9" height="6.9"/>
	<rect x="73.9" y="123.8" fill="none" stroke="#000000" stroke-width="3" stroke-miterlimit="10" width="6.9" height="6.9"/>
	<line fill="none" stroke="#000000" stroke-width="3" stroke-miterlimit="10" x1="49.2" y1="0" x2="49.2" y2="100.6"/>
	<path fill="none" stroke="#000000" stroke-width="3" stroke-miterlimit="10" d="M90.8,101.9"/>
	<path fill="none" stroke="#000000" stroke-width="3" stroke-miterlimit="10" d="M66.8,66.3"/>
	<path fill="none" stroke="#000000" stroke-width="3" stroke-miterlimit="10" d="M7.5,101.9"/>
	<path fill="none" stroke="#000000" stroke-width="3" stroke-miterlimit="10" d="M31.9,66.3"/>
	<line fill="none" stroke="#000000" stroke-width="3" stroke-miterlimit="10" x1="59.2" y1="40" x2="59.2" y2="101.9"/>
	<line fill="none" stroke="#000000" stroke-width="3" stroke-miterlimit="10" x1="69.2" y1="40" x2="69.2" y2="101.9"/>
	<line fill="none" stroke="#000000" stroke-width="3" stroke-miterlimit="10" x1="59.2" y1="40" x2="59.2" y2="101.9"/>
	<line fill="none" stroke="#000000" stroke-width="3" stroke-miterlimit="10" x1="39.2" y1="40" x2="39.2" y2="101.9"/>
	<line fill="none" stroke="#000000" stroke-width="3" stroke-miterlimit="10" x1="29.2" y1="40" x2="29.2" y2="101.9"/>
	<rect x="40.9" y="30" fill="none" stroke="#000000" stroke-width="3" stroke-miterlimit="10" width="16.8" height="10"/>
</g>
</svg>
