<?xml version="1.0" encoding="utf-8"?>
<!-- Generator: Adobe Illustrator 18.1.1, SVG Export Plug-In . SVG Version: 6.00 Build 0)  -->
<!DOCTYPE svg PUBLIC "-//W3C//DTD SVG 1.1//EN" "http://www.w3.org/Graphics/SVG/1.1/DTD/svg11.dtd">
<svg version="1.1" id="Layer_2" xmlns="http://www.w3.org/2000/svg" xmlns:xlink="http://www.w3.org/1999/xlink" x="0px" y="0px"
	 viewBox="0 0 86.3 117.1" enable-background="new 0 0 86.3 117.1" xml:space="preserve">
<g>
	<rect x="1.5" y="8.1" fill="none" stroke="#C6C6C6" stroke-width="3" stroke-miterlimit="10" width="83.3" height="35.8"/>
	<rect x="67.6" y="16" fill="none" stroke="#C6C6C6" stroke-width="3" stroke-miterlimit="10" width="6.9" height="6.9"/>
	<rect x="53.5" y="16" fill="none" stroke="#C6C6C6" stroke-width="3" stroke-miterlimit="10" width="6.9" height="6.9"/>
	<rect x="39.5" y="16" fill="none" stroke="#C6C6C6" stroke-width="3" stroke-miterlimit="10" width="6.9" height="6.9"/>
	<rect x="25.5" y="16" fill="none" stroke="#C6C6C6" stroke-width="3" stroke-miterlimit="10" width="6.9" height="6.9"/>
	<rect x="11.5" y="16" fill="none" stroke="#C6C6C6" stroke-width="3" stroke-miterlimit="10" width="6.9" height="6.9"/>
	<rect x="67.6" y="30" fill="none" stroke="#C6C6C6" stroke-width="3" stroke-miterlimit="10" width="6.9" height="6.9"/>
	<rect x="53.5" y="30" fill="none" stroke="#C6C6C6" stroke-width="3" stroke-miterlimit="10" width="6.9" height="6.9"/>
	<rect x="39.5" y="30" fill="none" stroke="#C6C6C6" stroke-width="3" stroke-miterlimit="10" width="6.9" height="6.9"/>
	<rect x="25.5" y="30" fill="none" stroke="#C6C6C6" stroke-width="3" stroke-miterlimit="10" width="6.9" height="6.9"/>
	<rect x="11.5" y="30" fill="none" stroke="#C6C6C6" stroke-width="3" stroke-miterlimit="10" width="6.9" height="6.9"/>
	<rect x="1.5" y="43.9" fill="none" stroke="#C6C6C6" stroke-width="3" stroke-miterlimit="10" width="83.3" height="35.8"/>
	<rect x="67.6" y="51.8" fill="none" stroke="#C6C6C6" stroke-width="3" stroke-miterlimit="10" width="6.9" height="6.9"/>
	<rect x="53.5" y="51.8" fill="none" stroke="#C6C6C6" stroke-width="3" stroke-miterlimit="10" width="6.9" height="6.9"/>
	<rect x="39.5" y="51.8" fill="none" stroke="#C6C6C6" stroke-width="3" stroke-miterlimit="10" width="6.9" height="6.9"/>
	<rect x="25.5" y="51.8" fill="none" stroke="#C6C6C6" stroke-width="3" stroke-miterlimit="10" width="6.9" height="6.9"/>
	<rect x="11.5" y="51.8" fill="none" stroke="#C6C6C6" stroke-width="3" stroke-miterlimit="10" width="6.9" height="6.9"/>
	<rect x="67.6" y="65.8" fill="none" stroke="#C6C6C6" stroke-width="3" stroke-miterlimit="10" width="6.9" height="6.9"/>
	<rect x="53.5" y="65.8" fill="none" stroke="#C6C6C6" stroke-width="3" stroke-miterlimit="10" width="6.9" height="6.9"/>
	<rect x="39.5" y="65.8" fill="none" stroke="#C6C6C6" stroke-width="3" stroke-miterlimit="10" width="6.9" height="6.9"/>
	<rect x="25.5" y="65.8" fill="none" stroke="#C6C6C6" stroke-width="3" stroke-miterlimit="10" width="6.9" height="6.9"/>
	<rect x="11.5" y="65.8" fill="none" stroke="#C6C6C6" stroke-width="3" stroke-miterlimit="10" width="6.9" height="6.9"/>
	<rect x="1.5" y="79.8" fill="none" stroke="#C6C6C6" stroke-width="3" stroke-miterlimit="10" width="83.3" height="35.8"/>
	<rect x="67.6" y="87.6" fill="none" stroke="#C6C6C6" stroke-width="3" stroke-miterlimit="10" width="6.9" height="6.9"/>
	<rect x="53.5" y="87.6" fill="none" stroke="#C6C6C6" stroke-width="3" stroke-miterlimit="10" width="6.9" height="6.9"/>
	<rect x="39.5" y="87.6" fill="none" stroke="#C6C6C6" stroke-width="3" stroke-miterlimit="10" width="6.9" height="6.9"/>
	<rect x="25.5" y="87.6" fill="none" stroke="#C6C6C6" stroke-width="3" stroke-miterlimit="10" width="6.9" height="6.9"/>
	<rect x="11.5" y="87.6" fill="none" stroke="#C6C6C6" stroke-width="3" stroke-miterlimit="10" width="6.9" height="6.9"/>
	<rect x="67.6" y="101.7" fill="none" stroke="#C6C6C6" stroke-width="3" stroke-miterlimit="10" width="6.9" height="6.9"/>
	<rect x="53.5" y="101.7" fill="none" stroke="#C6C6C6" stroke-width="3" stroke-miterlimit="10" width="6.9" height="6.9"/>
	<rect x="39.5" y="101.7" fill="none" stroke="#C6C6C6" stroke-width="3" stroke-miterlimit="10" width="6.9" height="6.9"/>
	<rect x="25.5" y="101.7" fill="none" stroke="#C6C6C6" stroke-width="3" stroke-miterlimit="10" width="6.9" height="6.9"/>
	<rect x="11.5" y="101.7" fill="none" stroke="#C6C6C6" stroke-width="3" stroke-miterlimit="10" width="6.9" height="6.9"/>
	<rect x="7.8" y="0" fill="#C6C6C6" width="8.1" height="8.1"/>
</g>
</svg>
