<?xml version="1.0" encoding="utf-8"?>
<!-- Generator: Adobe Illustrator 18.1.1, SVG Export Plug-In . SVG Version: 6.00 Build 0)  -->
<!DOCTYPE svg PUBLIC "-//W3C//DTD SVG 1.1//EN" "http://www.w3.org/Graphics/SVG/1.1/DTD/svg11.dtd">
<svg version="1.1" xmlns="http://www.w3.org/2000/svg" xmlns:xlink="http://www.w3.org/1999/xlink" x="0px" y="0px"
	 viewBox="0 0 70 43" enable-background="new 0 0 70 43" xml:space="preserve">
<g id="Layer_3">
</g>
<g id="Layer_2">
	<g>
		<polygon fill="#FFFFFF" points="54.8,12.1 41.9,9.1 41.9,29.5 42.4,29.5 42.4,37.6 48.3,37.6 48.3,29.5 54.8,29.5 		"/>
		<circle fill="#FFFFFF" stroke="#000000" stroke-width="3" stroke-miterlimit="10" cx="15.8" cy="37.6" r="3.9"/>
		<circle fill="#FFFFFF" stroke="#000000" stroke-width="3" stroke-miterlimit="10" cx="54.8" cy="37.6" r="3.9"/>
		<path fill="#FFFFFF" stroke="#000000" stroke-width="3" stroke-miterlimit="10" d="M42.4,37.6v-31V1.5H1.5v36.1H8
			c0-4.3,3.5-7.8,7.8-7.8s7.8,3.5,7.8,7.8H47c0-4.3,3.5-7.8,7.8-7.8s7.8,3.5,7.8,7.8h4.5V28c0,0,0.1-8.5-12.3-8.5"/>
		<path fill="#FFFFFF" stroke="#C6C6C6" stroke-width="3" stroke-miterlimit="10" d="M40,11.3"/>
		<polyline fill="none" stroke="#000000" stroke-width="3" stroke-miterlimit="10" points="41.9,8.8 54.8,11.3 54.8,29.8 		"/>
		<line fill="#E61F53" stroke="#000000" stroke-width="3" stroke-miterlimit="10" x1="54.8" y1="19.5" x2="42.4" y2="19.5"/>
		<rect x="67.8" y="28" width="2.1" height="4.5"/>
		<line fill="#FFFFFF" stroke="#000000" stroke-width="3" stroke-miterlimit="10" x1="65.6" y1="37.6" x2="69.4" y2="37.6"/>
		<g>
			<path fill="#1C1C1B" d="M24.9,14.6c-0.4-0.1-0.9,0.1-1,0.6L23,18.4L22,15.1c-0.1-0.3-0.4-0.6-0.7-0.6c0,0,0,0-0.1,0
				c0,0,0,0-0.1,0c-0.3,0-0.6,0.2-0.7,0.6l-0.9,3.2l-0.9-3.2c-0.1-0.4-0.6-0.7-1-0.6c-0.4,0.1-0.7,0.6-0.6,1l1.7,5.9
				c0.1,0.3,0.4,0.6,0.7,0.6c0,0,0,0,0.1,0c0,0,0,0,0.1,0c0.3,0,0.6-0.2,0.7-0.6l0.9-3.2l0.9,3.2c0.1,0.3,0.4,0.6,0.7,0.6
				c0,0,0,0,0.1,0c0,0,0,0,0.1,0c0.3,0,0.6-0.2,0.7-0.6l1.7-5.9C25.6,15.1,25.3,14.7,24.9,14.6z"/>
			<path fill="#1C1C1B" d="M26.5,21.1c0,0.5,0.4,0.9,0.9,0.9c0.5,0,0.9-0.4,0.9-0.9v-5.7c0-0.5-0.4-0.9-0.9-0.9
				c-0.5,0-0.9,0.4-0.9,0.9V21.1z"/>
			<path fill="#1C1C1B" d="M14.3,21.1c0,0.5,0.4,0.9,0.9,0.9c0.5,0,0.9-0.4,0.9-0.9v-5.7c0-0.5-0.4-0.9-0.9-0.9
				c-0.5,0-0.9,0.4-0.9,0.9V21.1z"/>
			<path fill="#1C1C1B" d="M33,18.3l2.3-2.3c0.3-0.3,0.3-0.8,0-1.2c-0.3-0.3-0.8-0.3-1.2,0l-2.7,2.7v-2.1c0-0.5-0.4-0.9-0.9-0.9
				c-0.5,0-0.9,0.4-0.9,0.9v5.7c0,0.5,0.4,0.9,0.9,0.9c0.5,0,0.9-0.4,0.9-0.9v-1.3l0.4-0.4l2.3,2.3c0.3,0.3,0.8,0.3,1.2,0
				c0.3-0.3,0.3-0.8,0-1.2L33,18.3z"/>
			<path fill="#1C1C1B" d="M13.3,17.2c0-1.4-1.1-2.6-2.5-2.6l0,0H8c-0.5,0-0.9,0.4-0.9,0.9v5.7C7.1,21.6,7.5,22,8,22
				c0.5,0,0.9-0.4,0.9-0.9v-1.3h1.9l0,0C12.1,19.8,13.3,18.6,13.3,17.2z M10.4,18.3L10.4,18.3l-1.6,0v-2.1h1.6
				c0.6,0,1.1,0.5,1.1,1.1C11.5,17.8,11,18.3,10.4,18.3z"/>
		</g>
	</g>
</g>
</svg>
