<?xml version="1.0" encoding="utf-8"?>
<!-- Generator: Adobe Illustrator 18.1.1, SVG Export Plug-In . SVG Version: 6.00 Build 0)  -->
<!DOCTYPE svg PUBLIC "-//W3C//DTD SVG 1.1//EN" "http://www.w3.org/Graphics/SVG/1.1/DTD/svg11.dtd">
<svg version="1.1" id="Capa_1" xmlns="http://www.w3.org/2000/svg" xmlns:xlink="http://www.w3.org/1999/xlink" x="0px" y="0px"
	 viewBox="-476 486.1 46 29.8" enable-background="new -476 486.1 46 29.8" xml:space="preserve">
<g>
	<path d="M-436.6,500c0.1-0.4,0.1-0.8,0.1-1.2c0-3.9-3.2-7.1-7.1-7.1c-0.9,0-1.7,0.2-2.4,0.4c-2.3-3.6-6.3-6-10.9-6
		c-7.2,0-13,5.8-13,13c0,0.3,0,0.7,0.1,1c-3.5,0.9-6.1,4-6.1,7.8c0,4.4,3.6,8,8,8h30c4.4,0,8-3.6,8-8
		C-430,503.9-432.9,500.6-436.6,500z"/>
</g>
</svg>
