<?xml version="1.0" encoding="utf-8"?>
<!-- Generator: Adobe Illustrator 18.1.1, SVG Export Plug-In . SVG Version: 6.00 Build 0)  -->
<!DOCTYPE svg PUBLIC "-//W3C//DTD SVG 1.1//EN" "http://www.w3.org/Graphics/SVG/1.1/DTD/svg11.dtd">
<svg version="1.1" id="Capa_1" xmlns="http://www.w3.org/2000/svg" xmlns:xlink="http://www.w3.org/1999/xlink" x="0px" y="0px"
	 viewBox="-284 355.2 430.1 291.5" enable-background="new -284 355.2 430.1 291.5" xml:space="preserve">
<g>
	<path id="MobileMe" d="M146.1,561.6c0,47-37.8,85.1-84.4,85.1h-261.3c-46.6,0-84.4-38.1-84.4-85.1c0-42.4,30.8-77.6,71.2-84
		c-0.5-3-0.8-6-0.8-9.2c0-29.8,24-53.9,53.5-53.9c13.2,0,25.3,4.8,34.6,12.8c16.6-37.7,37.9-72.1,97.7-72.1
		c72.5,0,106.8,56.3,106.8,115.7c0,2.5-0.1,4.9-0.3,7.4C117.1,486.2,146.1,520.5,146.1,561.6z"/>
</g>
</svg>
