<?xml version="1.0" encoding="utf-8"?>
<!-- Generator: Adobe Illustrator 19.2.0, SVG Export Plug-In . SVG Version: 6.00 Build 0)  -->
<svg version="1.1" id="Capa_1" xmlns="http://www.w3.org/2000/svg" xmlns:xlink="http://www.w3.org/1999/xlink" x="0px" y="0px"
	 viewBox="0 0 512 512" style="enable-background:new 0 0 512 512;" xml:space="preserve">
<g>
	<path d="M278.6,362.2l-76.8-15.1c1.1-8.5,1.9-16.8,2.4-24.6l52.6-35.3C265.9,312.4,273,338.1,278.6,362.2z M215.5,201.7l-26,17.4
		c2.4,6,4.6,12.3,6.5,19.1l44.3,8.7c-7.1-15.2-15-29.8-23.9-43.3C216.3,203.5,216,202.7,215.5,201.7z M254.3,280.2
		c-3.2-8.5-6.6-17-10.3-25.3l-46-9c4.7,19.3,7.4,41.7,6.6,67.8L254.3,280.2z M121.8,160.5c-0.9,2.4-1.4,4.8-1.4,7.5
		c0,8.5,4.8,15.7,11.8,19.4c-0.7,2.5-1.3,5.1-1.3,7.8c0,15.5,12.5,28,28,28c11.2,0,20.8-6.6,25.3-16.1c0.9,1.8,1.7,3.5,2.6,5.4
		l25.7-17.3c-0.6-1.3-1-2.3-1.2-2.6c-1.7-3.4-3-6.8-4.2-10.2c3.2,1.8,6.9,3,10.8,3c12.1,0,21.9-9.8,21.9-21.9
		c0-12.1-9.8-21.9-21.9-21.9c-6.1,0-11.6,2.5-15.6,6.5c2.4-32.1,23.7-60.8,56.8-77c30.6-14.9,65.2-12.2,92.4,4.1
		c-27-37.7-77.9-51.6-121-30.6c-25.2,12.3-42.6,34.1-50.1,59c-0.1-18.6,5-34.9,19.3-50c2.3-2.4,4.6-4.6,7.2-6.8
		c25.8-22.2,60-28.3,90.4-19.4c-35.7-29.6-88.5-30.1-124.8,1.1c-20.9,17.9-32.2,42.9-33.5,68.3C121.9,71.1,90,57.4,58.2,65
		c-36.6,8.7-60.5,42.5-58.1,78.8c8.3-23.4,27.9-42.3,53.9-48.5c31.5-7.5,63.1,5.8,80.3,31.1c-24.5-9.6-52.8-9.4-78.2,3.2
		c-43,21.2-63.1,70-49.8,114.4c3.7-31.5,22.7-60.5,53.2-75.6C79.7,158.5,101.5,156.3,121.8,160.5z M315,424.5l35.6-7
		c-0.5-4-0.9-7.8-1.1-11.4l-24.4-16.4C320.9,401.4,317.6,413.3,315,424.5z M356.3,358.1l-12.1-8.1c-0.2,0.4-0.4,0.8-0.5,0.9
		c-4.1,6.3-7.8,13-11.1,20.1l20.6-4.1C354.1,363.9,355.1,360.9,356.3,358.1z M331,374.8c-1.7,3.8-3.3,7.8-4.8,11.8l23.1,15.5
		c-0.4-12.1,0.8-22.5,3.1-31.5L331,374.8z M306.3,269.2c14.1-4.1,30-1.3,42,9c1.2,1,2.3,2.1,3.3,3.2c6.6,7,9,14.5,8.9,23.2
		c-3.5-11.5-11.6-21.7-23.3-27.4c-20-9.8-43.6-3.3-56.2,14.2c12.6-7.6,28.7-8.8,42.9-1.9c15.4,7.5,25.3,20.9,26.3,35.7
		c-1.8-1.9-4.4-3-7.2-3c-5.6,0-10.2,4.6-10.2,10.2c0,5.6,4.6,10.2,10.2,10.2c1.8,0,3.5-0.5,5-1.4c-0.6,1.6-1.2,3.2-2,4.7
		c-0.1,0.2-0.3,0.6-0.6,1.2l12,8c0.4-0.8,0.8-1.7,1.2-2.5c2.1,4.4,6.5,7.5,11.7,7.5c7.2,0,13-5.8,13-13c0-1.3-0.2-2.5-0.6-3.6
		c3.3-1.7,5.5-5.1,5.5-9c0-1.2-0.2-2.4-0.6-3.5c9.4-1.9,19.6-0.9,28.9,3.7c14.1,7,23,20.5,24.7,35.1c6.2-20.6-3.2-43.2-23.1-53.1
		c-11.8-5.8-24.9-6-36.3-1.5c8-11.7,22.7-17.9,37.3-14.5c12,2.9,21.1,11.7,25,22.5c1.1-16.8-10-32.5-27-36.6
		c-14.8-3.5-29.5,2.8-37.5,14.7c-0.6-11.8-5.8-23.4-15.5-31.7C347.3,255.2,322.8,255.4,306.3,269.2z M362,462.9
		c-5.6-15.6-9.1-29.7-11-42.2l-36.8,7.3c-0.8,3.8-1.6,7.3-2.3,10.8l35.1,23.6c-2-0.1-4.1-0.1-6.1-0.2l-29.6-19.9
		c-1.3,7.3-2.3,13.8-3.1,19.3c-4.2-0.1-8.5-0.1-12.7-0.1c-1.6-14-4.3-35.5-9-61L193,463.4c-4.6,0.2-9.1,0.4-13.6,0.7l105.6-70.9
		c-1.4-7.6-3-15.4-4.8-23.4l-79.4-15.6c-4.8,32.2-14.7,68.9-31.1,110.5c-68.5,3.9-114.7,11.3-114.7,19.6
		c0,12.5,102.3,22.7,228.5,22.7c126.2,0,228.5-10.2,228.5-22.7C512,474.4,449.5,466.1,362,462.9z"/>
</g>
</svg>
