<?xml version="1.0" encoding="iso-8859-1"?>
<!-- Generator: Adobe Illustrator 18.1.1, SVG Export Plug-In . SVG Version: 6.00 Build 0)  -->
<svg version="1.1" id="Capa_1" xmlns="http://www.w3.org/2000/svg" xmlns:xlink="http://www.w3.org/1999/xlink" x="0px" y="0px"
	 viewBox="0 0 19.919 19.919" style="enable-background:new 0 0 19.919 19.919;" xml:space="preserve">
<g>
	<path style="fill:#030104;" d="M19.67,10.555l-4.375-3.756l-0.002-0.088h-0.359l-0.002,0.125l-4.336,3.719H9.329L4.994,6.837
		L4.99,6.712H4.632L4.629,6.799l-4.374,3.756H0v2.652h0.401v-1.969h0.967v1.969h0.458v-1.969h1.032v1.969h0.444v-1.969h1.222
		l-0.047,1.969h0.667l-0.046-1.969h9.729l-0.048,1.969h0.666l-0.049-1.969h1.223v1.969h0.445v-1.969h1.031v1.969h0.456v-1.969h0.97
		v1.969h0.398v-2.652H19.67z M4.539,10.555H4.461l0.084-0.188L4.539,10.555z M4.554,10.019l-0.242,0.536h-0.38l0.63-1.02
		L4.554,10.019z M4.572,9.247l-0.81,1.309H3.313l1.268-1.774L4.572,9.247z M4.59,8.517l-1.465,2.038H2.522l2.075-2.447L4.59,8.517z
		 M4.604,7.859l-2.29,2.696H1.591l3.02-3.002L4.604,7.859z M4.616,7.314l-3.261,3.241H0.517l4.106-3.524L4.616,7.314z M5.082,10.555
		L5.08,10.458l0.042,0.098L5.082,10.555L5.082,10.555z M5.27,10.555l-0.2-0.446L5.058,9.596l0.592,0.959H5.27z M5.821,10.555
		L5.053,9.312L5.04,8.838l1.23,1.717H5.821z M6.457,10.555L5.034,8.572L5.023,8.156l2.038,2.398L6.457,10.555L6.457,10.555z
		 M7.271,10.555l-2.253-2.65L5.013,7.594l2.98,2.961H7.271z M8.229,10.555l-3.224-3.2L4.998,7.066l4.067,3.49L8.229,10.555
		L8.229,10.555z M14.844,10.555h-0.042l0.042-0.098V10.555z M14.852,10.109l-0.198,0.445h-0.379l0.591-0.959L14.852,10.109z
		 M14.871,9.312l-0.77,1.244h-0.449l1.229-1.717L14.871,9.312z M14.889,8.572l-1.422,1.982h-0.604l2.035-2.398L14.889,8.572z
		 M14.904,7.904l-2.252,2.65h-0.721l2.979-2.961L14.904,7.904z M14.917,7.355l-3.222,3.201h-0.838l4.064-3.49L14.917,7.355z
		 M15.383,10.555l-0.004-0.187l0.084,0.188L15.383,10.555L15.383,10.555z M15.611,10.555l-0.241-0.537l-0.011-0.481l0.629,1.02
		L15.611,10.555L15.611,10.555z M16.163,10.555l-0.81-1.309L15.34,8.781l1.271,1.773L16.163,10.555L16.163,10.555z M16.797,10.555
		l-1.462-2.039l-0.009-0.408l2.076,2.447H16.797z M17.609,10.555L15.32,7.859l-0.01-0.307l3.022,3.002L17.609,10.555L17.609,10.555z
		 M18.566,10.555l-3.261-3.241l-0.004-0.282l4.106,3.523H18.566L18.566,10.555z"/>
</g>
<g>
</g>
<g>
</g>
<g>
</g>
<g>
</g>
<g>
</g>
<g>
</g>
<g>
</g>
<g>
</g>
<g>
</g>
<g>
</g>
<g>
</g>
<g>
</g>
<g>
</g>
<g>
</g>
<g>
</g>
</svg>
