<?xml version="1.0" standalone="no"?>
<!DOCTYPE svg PUBLIC "-//W3C//DTD SVG 20010904//EN"
 "http://www.w3.org/TR/2001/REC-SVG-20010904/DTD/svg10.dtd">
<svg version="1.0" xmlns="http://www.w3.org/2000/svg"
 width="512.000000pt" height="512.000000pt" viewBox="0 0 512.000000 512.000000"
 preserveAspectRatio="xMidYMid meet">
<metadata>
Created by potrace 1.11, written by Peter Selinger 2001-2013
</metadata>
<g transform="translate(0.000000,512.000000) scale(0.100000,-0.100000)"
fill="#000000" stroke="none">
<path d="M0 2560 l0 -2560 2560 0 2560 0 0 2560 0 2560 -2560 0 -2560 0 0
-2560z m2724 2005 c213 -12 485 -85 690 -185 541 -264 920 -726 1072 -1309 73
-283 75 -647 4 -946 -113 -479 -410 -902 -834 -1190 -571 -387 -1343 -437
-1972 -129 -320 156 -591 395 -789 694 -652 987 -289 2332 772 2863 186 94
348 147 553 183 98 17 309 33 370 28 19 -2 80 -6 134 -9z"/>
<path d="M2460 4451 c-138 -17 -347 -57 -362 -70 -4 -4 61 -50 145 -103 l153
-97 237 12 237 13 72 79 c40 43 73 83 73 89 0 11 -343 95 -385 94 -14 0 -90
-8 -170 -17z"/>
<path d="M2122 3963 c-23 -8 -62 -35 -86 -59 l-45 -44 -118 21 c-148 27 -318
28 -507 5 -77 -10 -150 -22 -161 -26 -19 -7 -23 -19 -28 -86 -11 -121 -9 -151
9 -158 9 -3 48 -6 87 -7 85 -1 272 -22 272 -30 0 -3 -33 -53 -73 -111 -71
-103 -75 -106 -233 -218 -88 -63 -165 -122 -170 -131 -5 -10 -9 -65 -9 -122 0
-91 2 -106 20 -122 53 -48 297 38 517 181 115 74 136 84 185 84 42 0 46 -3
158 -120 102 -106 119 -128 147 -197 17 -43 39 -118 48 -168 9 -49 47 -232 85
-405 68 -316 94 -461 150 -840 17 -113 32 -218 35 -235 3 -16 8 -68 12 -115
l6 -86 64 -12 c66 -13 157 -53 229 -103 l41 -28 7 46 c3 25 6 109 6 187 1 158
17 506 24 513 3 3 114 -18 248 -46 134 -28 249 -51 257 -51 8 0 50 34 93 76
50 47 101 86 136 102 l56 25 -50 22 c-28 12 -175 80 -327 150 -243 112 -277
130 -277 150 0 18 23 35 128 94 70 40 137 80 148 89 18 14 27 44 47 162 14 80
24 147 22 149 -3 2 -159 -59 -354 -140 -22 -9 -23 -8 -16 13 17 57 17 129 0
174 -69 182 -312 224 -436 75 -18 -21 -38 -54 -45 -72 l-12 -34 -12 30 c-14
36 -35 264 -50 540 -9 178 -25 312 -44 373 -5 15 -2 22 11 26 31 10 95 79 114
121 28 65 32 118 15 179 -44 150 -185 228 -324 179z m157 -78 c131 -67 130
-269 -1 -336 -126 -64 -276 70 -238 213 24 88 83 138 163 138 26 0 61 -7 76
-15z m-462 -70 c151 -23 144 -18 147 -105 2 -81 24 -137 68 -176 33 -31 100
-62 147 -70 51 -8 57 -18 75 -131 14 -81 42 -521 34 -527 -1 -2 -26 -6 -54
-10 l-51 -6 -22 102 c-63 288 -148 495 -243 588 -103 102 -239 161 -424 185
-63 8 -134 15 -157 15 -79 0 -87 6 -87 61 0 32 5 51 13 55 26 10 264 32 356
33 51 0 140 -6 198 -14z m-79 -294 c89 -45 160 -116 209 -208 40 -76 119 -290
110 -299 -2 -3 -40 34 -83 82 -84 93 -133 123 -197 124 -50 0 -93 -19 -205
-92 -117 -75 -246 -139 -336 -167 -107 -33 -106 -33 -106 49 l0 69 164 117
165 118 86 127 c98 144 81 137 193 80z m567 -873 c13 -150 83 -288 186 -364
50 -37 134 -74 167 -74 35 0 269 72 391 120 69 27 126 48 128 47 1 -2 -3 -33
-9 -69 l-11 -66 -121 -68 c-66 -37 -134 -74 -149 -83 -27 -15 -28 -18 -25 -89
l3 -74 268 -122 c148 -68 269 -125 270 -127 0 -2 -27 -30 -61 -62 l-61 -59
-278 59 -278 59 -7 -25 c-4 -14 -11 -171 -16 -349 -5 -177 -12 -325 -15 -328
-3 -3 -22 3 -44 14 -21 11 -62 27 -91 37 -29 9 -55 22 -57 29 -1 6 -8 58 -15
116 -28 246 -126 812 -200 1159 -44 206 -80 378 -80 382 0 9 25 16 66 18 l31
1 8 -82z m460 -40 c91 -62 104 -175 30 -257 -54 -60 -128 -75 -201 -42 -83 38
-124 117 -103 197 13 47 72 111 114 124 46 14 124 4 160 -22z"/>
<path d="M3716 3924 l-37 -55 16 -122 c12 -99 12 -139 3 -215 -13 -106 -15
-101 64 -127 l47 -16 73 49 73 49 148 -73 c82 -41 151 -74 154 -74 11 0 -9 33
-150 246 -133 200 -154 226 -233 294 -131 112 -116 108 -158 44z"/>
<path d="M3763 3088 l-153 -151 0 -94 0 -93 71 -108 c39 -59 104 -141 145
-182 65 -66 91 -84 202 -139 l127 -63 74 -120 c41 -65 78 -121 82 -124 4 -2
30 65 59 150 l51 155 11 225 11 225 -28 150 c-16 83 -31 154 -34 159 -14 20
-225 102 -337 131 -66 17 -123 31 -125 31 -2 0 -73 -68 -156 -152z"/>
</g>
</svg>
