<?xml version="1.0" encoding="utf-8"?>
<!-- Generator: Adobe Illustrator 19.2.0, SVG Export Plug-In . SVG Version: 6.00 Build 0)  -->
<svg version="1.1" id="Capa_1" xmlns="http://www.w3.org/2000/svg" xmlns:xlink="http://www.w3.org/1999/xlink" x="0px" y="0px"
	 viewBox="0 0 422.2 422.2" style="enable-background:new 0 0 422.2 422.2;" xml:space="preserve">
<path id="XMLID_269_" d="M228.5,241.6v155.4c0,9.9,8,17.9,17.9,17.9h5.6c9.9,0,17.9-8,17.9-17.9v0H330v0c0,9.9,8,17.9,17.9,17.9h5.6
	c9.9,0,17.9-8,17.9-17.9V241.6c0-7.1-5.8-13-13-13h-25.1v-22.2c0-12.6-10.3-22.9-22.9-22.9h-21c-12.6,0-22.9,10.3-22.9,22.9v22.2
	h-25.1C234.3,228.6,228.5,234.4,228.5,241.6z M317.3,228.6h-34.8l0-22.2c0-3.8,3.1-6.9,6.9-6.9h21c3.8,0,6.9,3.1,6.9,6.9
	C317.3,206.4,317.3,228.6,317.3,228.6z M317.3,256.4h-34.8v-11.8h34.8C317.3,244.6,317.3,256.4,317.3,256.4z M346,380.9
	c0-1,0.9-1.9,1.9-1.9h5.6c1,0,1.9,0.9,1.9,1.9v16c0,1-0.9,1.9-1.9,1.9H348c-1,0-1.9-0.9-1.9-1.9V380.9z M244.5,380.9
	c0-1,0.9-1.9,1.9-1.9h5.6c1,0,1.9,0.9,1.9,1.9v8v8c0,1-0.9,1.9-1.9,1.9h-5.6c-1,0-1.9-0.9-1.9-1.9V380.9z M244.5,363.1V244.6h22.1
	v19.8c0,4.4,3.6,8,8,8h50.8c4.4,0,8-3.6,8-8v-19.8h22.1v118.5c-0.6-0.1-1.3-0.1-1.9-0.1H348c-9.9,0-17.9,8-17.9,17.9v0h-60.2v0
	c0-9.9-8-17.9-17.9-17.9h-5.6C245.8,363,245.1,363,244.5,363.1L244.5,363.1z M0,160.4l0,177.7c0,4.4,3.6,8,8,8h203.1
	c4.4,0,8-3.6,8-8s-3.6-8-8-8H16V168.4h390.2v161.7h-17.4c-4.4,0-8,3.6-8,8s3.6,8,8,8h25.4c4.4,0,8-3.6,8-8V160.4c0-4.4-3.6-8-8-8
	H238.1c0.3-0.8,0.5-1.7,0.5-2.7c0-4.4-3.6-8-8-8h-50.8c-4.4,0-8,3.6-8,8c0,0.9,0.2,1.8,0.5,2.7h-54.7v-27.5h68.2c4.4,0,8-3.6,8-8
	V15.3c0-4.4-3.6-8-8-8H33.4c-4.4,0-8,3.6-8,8v101.6c0,4.4,3.6,8,8,8h68.2v27.5H8C3.6,152.4,0,156,0,160.4z M109.6,108.9H41.4V23.3
	h136.3v85.6H109.6z"/>
</svg>
