<?xml version="1.0" encoding="utf-8"?>
<!-- Generator: Adobe Illustrator 19.2.0, SVG Export Plug-In . SVG Version: 6.00 Build 0)  -->
<svg version="1.1" id="Capa_1" xmlns="http://www.w3.org/2000/svg" xmlns:xlink="http://www.w3.org/1999/xlink" x="0px" y="0px"
	 viewBox="0 0 18.4 18.4" style="enable-background:new 0 0 18.4 18.4;" xml:space="preserve">
<style type="text/css">
	.st0{fill:#030104;}
</style>
<g>
	<g>
		<path class="st0" d="M9.7,15.7c0,0.7,0,1.4,0,2c0,0.1,0,0.3,0,0.4c0,0.1,0,0.2,0.1,0.3h8.1c-0.1-0.4-0.2-0.7-0.3-1.1
			c0,0,0-0.1,0-0.1c0-0.4-0.6-1.3-0.8-1.7c-0.2-0.4-0.2-1.1-0.2-1.4c0-0.3,0.4-0.3,0.6-0.4c0.1-0.1,0-0.4,0-0.9c0-0.5,0-1.4,0-1.9
			c0-0.4-0.6-1.4-0.7-1.5c-0.1-0.1,0-0.6,0-1s-0.4-0.9-0.4-0.9s0.4-0.5,0.4-0.7c0-0.2-1.6-2.2-2.3-2.1c-1,0.1-2.2,0.3-2.2,0.3
			s-0.8,0.2-0.8,0.5c0,0.2-0.3,1.8-0.3,2.4c0,0.7,0.1,2,0,2.4c-0.1,0.4,0.5,1.1,0.7,1.2c0.2,0.1,0,1.1,0,1.3c0,0.2-0.3,0.3-0.6,0.4
			c-0.1,0-0.3,0.2-0.5,0.4c-0.3,0.1-0.5,0.2-0.6,0.8C9.6,14.8,9.7,15.3,9.7,15.7z M12.7,8.7c0,0,0.2-0.1,0.4-0.1
			c0.2,0,0.7,0.1,0.9,0c0.2,0,0.4-0.6,0.4-0.6s0.2-0.2,0.2-0.4c0.1-0.2,0.5-0.1,0.5-0.1s0.3,0.7,0.5,1c0.2,0.3,0.5,0.7,0.6,0.7
			c0.1,0.1,0.3,0.5,0.4,0.6c0.1,0.1-0.1,0.1-0.1,0.1s-0.1,0-0.2,0c-0.1,0-0.2-0.1-0.4-0.1c-0.2,0-0.6,0-0.9,0c-0.2,0-0.4,0-0.4,0
			c0,0.1,0,0.2,0.1,0.4c0,0.2,0.2,0.4,0.3,0.6c0.2,0.1,0.2,0,0.3-0.1c0.2,0,0.3,0,0.6,0.1c0.2,0.1,0.6,0.1,0.7,0.1
			c0.1,0,0.2-0.4,0.2-0.6c0,0,0,0.1,0.1,0.1C17,10.6,17,11,17,11.2c0,0.2,0,0.9,0,1.4c0.1,0.5,0.1,0.8-0.1,0.8s-0.6-0.3-1.2-0.5
			c-0.5-0.2-0.4-0.1-0.7,0c-0.3,0-0.6-0.1-1-0.1c-0.3-0.1-0.6-0.1-0.9-0.1c-0.3,0-0.1-0.4-0.1-0.6c-0.1-0.2-0.3-0.8-0.2-1
			c0.1-0.2,0.2-0.5,0.1-0.7c-0.1-0.3-0.2-0.7-0.3-1C12.4,9.1,12.7,8.7,12.7,8.7z M12.1,5.4c-0.1-0.2,0.5-0.1,1-0.2
			c0.5-0.1,1.1-0.1,1.4-0.1c0.3,0.1,1.7,1.5,1.7,1.5s-1-0.3-1.2-0.4C14.8,6.2,14.2,6,14,6c-0.3,0-1,0-1.2-0.1
			C12.5,5.9,12.2,5.6,12.1,5.4z M14.7,11.4c-0.2,0-0.2,0-0.1,0.1c0,0.1,0.1,0,0.4,0.1c0.2,0,0.3,0,0.5,0.1c0.2,0,0.4,0.2,0.4,0.2
			c0.1,0.1,0.2,0.1,0.2,0.1c0.1,0.1,0.1,0,0.2,0c0.1-0.1,0.2-0.1,0.2-0.1s0.1-0.2-0.1-0.3c-0.2-0.1-0.5-0.2-0.7-0.1
			C15.6,11.3,14.9,11.3,14.7,11.4z"/>
		<path class="st0" d="M0.5,15.2c0.1,0.4,0,1.7,0,2.4c0,0.2,0.1,0.4,0.1,0.6h8.6C9.2,17.7,9,17,9,16.8c0-0.5-0.7-1.4-0.8-1.8
			C8,14.5,8,13.7,8,13.4c0-0.3,0.5-0.3,0.6-0.4c0.1-0.1,0-0.4,0-0.9c0-0.6,0-1.6,0-2c0-0.5-0.7-1.5-0.7-1.6c-0.1-0.1-0.1-0.6,0-1
			c0-0.4-0.4-0.9-0.4-0.9s0.8-0.9,0.9-1.2c0.2-0.3,0-0.8,0-1.2C8.2,3.7,7.8,1.8,7.8,1.5c0-0.4-0.1-0.7-0.3-0.7c-0.2,0-0.6-0.2-1-0.3
			C6,0.3,5,0,4.8,0C4.7,0,4.2,0,3.9,0.2C3.6,0.3,3.5,0.4,3,0.7C2.5,0.9,2.4,1.2,2.2,1.5C2,1.7,1.3,2.6,1.3,2.6s0,1.6,0,2.4
			C1.2,5.8,1.8,6,1.8,6S1.7,6.2,1.7,6.9c0,0.7,0.1,2.1,0,2.5c-0.1,0.4,0.5,1.1,0.8,1.3c0.2,0.1,0,1.2,0,1.4c0,0.1-0.2,0.2-0.4,0.3
			c0,0,0,0,0,0c-0.2,0.1-0.8,0-1,0.9c-0.1,0.2-0.3,0.3-0.4,0.5C0.3,14.2,0.4,14.8,0.5,15.2z M3.5,7.4c0,0,0.4,0,0.5,0
			c0.2,0,0.7,0.1,0.9,0c0.2,0,0.5-0.6,0.5-0.6s0.2-0.2,0.2-0.4s0.6-0.1,0.6-0.1s0.3,0.8,0.6,1.1C7,7.8,7.3,8.2,7.4,8.3
			c0.1,0.1,0.3,0.5,0.4,0.6C8,9,7.7,9.1,7.7,9.1s-0.1,0-0.2,0C7.4,9,7.3,8.9,7,8.9c-0.2,0-0.7,0-0.9,0c-0.3,0-0.5,0-0.5,0
			c0,0.1,0,0.2,0.1,0.4c0,0.2,0.2,0.5,0.3,0.6c0.2,0.1,0.2,0,0.3-0.1c0.2,0,0.4,0,0.6,0.1c0.3,0.1,0.6,0.1,0.8,0.1
			C7.9,10,8,9.4,8,9.4s0,0.1,0.1,0.1c0.2,0.2,0.2,0.6,0.2,0.9c0,0.2,0,0.9,0,1.5c0.1,0.6,0.1,0.9-0.1,0.8c-0.2,0-0.7-0.3-1.2-0.5
			c-0.6-0.2-0.5-0.1-0.8,0c-0.3,0-0.7-0.1-1-0.1c-0.4-0.1-0.7-0.1-1-0.1c-0.3,0-0.1-0.4-0.1-0.7C4,11,3.7,10.3,3.8,10.1
			c0.1-0.2,0.1-0.5,0-0.7C3.7,9.1,3.5,8.6,3.4,8.3C3.2,8,3.5,7.4,3.5,7.4z M3.3,2c0.1-0.2,0.2-0.4,0.1-0.5c0-0.2-0.1-0.5-0.1-0.5
			S3.8,0.5,4,0.5c0.2-0.1,0.5-0.2,0.7-0.2s0.5,0,0.7,0.1c0.2,0.1,0.5,0.1,0.7,0.2c0.2,0.1,0.7,0.1,0.7,0.1S7.2,0.9,7.4,1
			c0.1,0.1,0.1,0.2,0.2,0.3c0,0.1,0.2,0.7,0.2,0.9c0,0.2,0.2,1.2,0.2,1.2L8,4.2c0,0-0.9-0.7-1.1-0.8C6.9,3.3,6.6,3.2,6.6,3.2
			c-0.2,0-0.6-0.1-0.8,0c-0.2,0.1-0.3,0.1-0.4,0C5.2,3.1,5.1,3,4.9,2.9C4.8,2.9,4.6,2.5,4.4,2.5c-0.2,0-0.2,0-0.4,0.2
			C3.9,2.9,3.7,2.9,3.6,2.9C3.5,2.9,3.2,2.2,3.3,2z M5.8,10.5c-0.2,0-0.2,0-0.1,0.1c0,0.1,0.1,0,0.4,0.1c0.2,0,0.4,0,0.6,0.1
			c0.2,0,0.4,0.2,0.4,0.2c0.1,0.1,0.1,0.2,0.2,0.3c0.1,0.1,0.2,0.1,0.4,0.1c0.1-0.1,0.2-0.4,0.2-0.4s-0.1-0.1-0.3-0.3
			c-0.2-0.1-0.3-0.2-0.5-0.2C6.8,10.4,6.1,10.5,5.8,10.5z"/>
	</g>
</g>
</svg>
