<?xml version="1.0" encoding="iso-8859-1"?>
<!-- Generator: Adobe Illustrator 18.0.0, SVG Export Plug-In . SVG Version: 6.00 Build 0)  -->
<!DOCTYPE svg PUBLIC "-//W3C//DTD SVG 1.1//EN" "http://www.w3.org/Graphics/SVG/1.1/DTD/svg11.dtd">
<svg version="1.1" id="Capa_1" xmlns="http://www.w3.org/2000/svg" xmlns:xlink="http://www.w3.org/1999/xlink" x="0px" y="0px"
	 viewBox="0 0 441.48 441.48" style="enable-background:new 0 0 441.48 441.48;" xml:space="preserve">
<g>
	<path style="fill:#191918;" d="M181.023,78.738c-14.487-13.119-33.301-20.471-53.107-20.471c-43.687,0-79.229,35.537-79.229,79.218
		c0,19.75,7.314,38.525,20.375,52.992H0v9h92.704l-9.592-7.963c-16.158-13.413-25.425-33.105-25.425-54.029
		c0-38.718,31.504-70.218,70.229-70.218c20.458,0,39.713,8.868,53.107,24.354v13.811c-10.883-17.958-30.616-29.986-53.107-29.986
		c-34.214,0-62.05,27.831-62.05,62.039c0,33.413,26.14,60.642,59.509,61.988l55.648,0.004v17.472h-10v9h10v16.055H0v9h69.145
		c-13.111,14.479-20.458,33.28-20.458,53.072c0,43.688,35.542,79.229,79.229,79.229c19.807,0,38.624-7.35,53.107-20.471v73.498h9
		v-97.21l-7.968,9.638c-13.422,16.234-33.155,25.545-54.139,25.545c-38.725,0-70.229-31.505-70.229-70.229
		c0-20.444,8.864-39.686,24.342-53.072h13.785c-17.938,10.887-29.948,30.603-29.948,53.072c0,34.215,27.835,62.05,62.05,62.05
		c34.215,0,62.05-27.835,62.05-62.05h0.057V5.148h-9V78.738z M125.678,190.477c-28.497-1.182-50.812-24.446-50.812-52.992
		c0-29.246,23.798-53.039,53.05-53.039s53.05,23.793,53.05,53.039l0.057,4.5v48.492H125.678z M180.966,304.075
		c0,29.252-23.798,53.05-53.05,53.05s-53.05-23.798-53.05-53.05c0-29.245,23.798-53.038,53.05-53.038l53.107-0.034L180.966,304.075z
		"/>
	<path style="fill:#191918;" d="M441.48,190.477h-69.206c13.062-14.467,20.382-33.241,20.382-52.992
		c0-43.681-35.542-79.218-79.229-79.218c-19.733,0-38.5,7.303-52.97,20.344V5.148h-9v97.068l7.959-9.566
		c13.421-16.131,33.107-25.383,54.01-25.383c38.725,0,70.229,31.5,70.229,70.218c0,20.4-8.829,39.612-24.244,52.992h-13.616
		c17.868-10.89,29.68-30.538,29.68-52.992c0-34.208-27.835-62.039-62.05-62.039c-33.078,0-60.296,25.853-61.964,58.856
		l-0.006,302.03h9v-73.385c14.467,13.047,33.233,20.358,52.97,20.358c43.688,0,79.229-35.542,79.229-79.229
		c0-19.791-7.341-38.595-20.452-53.072h69.275v-9h-92.979l9.632,7.968c16.22,13.417,25.523,33.138,25.523,54.104
		c0,38.725-31.505,70.229-70.229,70.229c-20.382,0-39.586-8.816-52.97-24.212v-13.675c10.919,17.869,30.598,29.707,52.97,29.707
		c34.215,0,62.05-27.835,62.05-62.05c0-34.208-27.835-62.038-62.05-62.038v-0.034h-52.97v-16.055h10v-9h-10v-17.472H441.48V190.477z
		 M313.427,251.037c29.252,0,53.05,23.793,53.05,53.038c0,29.252-23.798,53.05-53.05,53.05c-28.254,0-51.505-22.063-52.97-50.244
		v-55.878L313.427,251.037z M260.457,134.679c1.465-28.174,24.716-50.233,52.97-50.233c29.252,0,53.05,23.793,53.05,53.039
		c0,28.546-22.31,51.81-50.801,52.992h-55.219V134.679z"/>
	<rect x="216.24" y="6.9" style="fill:#191918;" width="9" height="14.5"/>
	<rect x="216.24" y="298.39" style="fill:#191918;" width="9" height="30.776"/>
	<rect x="216.24" y="359.943" style="fill:#191918;" width="9" height="30.777"/>
	<rect x="216.24" y="236.836" style="fill:#191918;" width="9" height="30.777"/>
	<rect x="216.24" y="52.177" style="fill:#191918;" width="9" height="30.776"/>
	<rect x="216.24" y="175.283" style="fill:#191918;" width="9" height="30.776"/>
	<rect x="216.24" y="113.73" style="fill:#191918;" width="9" height="30.777"/>
	<rect x="216.24" y="421.496" style="fill:#191918;" width="9" height="14.5"/>
	<rect x="50.758" y="216.948" style="fill:#191918;" width="30.066" height="9"/>
	<rect x="110.891" y="216.948" style="fill:#191918;" width="30.066" height="9"/>
	<rect x="6.192" y="216.948" style="fill:#191918;" width="14.5" height="9"/>
	<rect x="420.788" y="216.948" style="fill:#191918;" width="14.5" height="9"/>
	<rect x="300.523" y="216.948" style="fill:#191918;" width="30.066" height="9"/>
	<rect x="360.656" y="216.948" style="fill:#191918;" width="30.066" height="9"/>
</g>
<g>
</g>
<g>
</g>
<g>
</g>
<g>
</g>
<g>
</g>
<g>
</g>
<g>
</g>
<g>
</g>
<g>
</g>
<g>
</g>
<g>
</g>
<g>
</g>
<g>
</g>
<g>
</g>
<g>
</g>
</svg>
