<?xml version="1.0" encoding="iso-8859-1"?>
<!-- Generator: Adobe Illustrator 17.1.0, SVG Export Plug-In . SVG Version: 6.00 Build 0)  -->
<!DOCTYPE svg PUBLIC "-//W3C//DTD SVG 1.1//EN" "http://www.w3.org/Graphics/SVG/1.1/DTD/svg11.dtd">
<svg version="1.1" id="Capa_1" xmlns="http://www.w3.org/2000/svg" xmlns:xlink="http://www.w3.org/1999/xlink" x="0px" y="0px"
	 viewBox="0 0 205.21 205.21" style="enable-background:new 0 0 205.21 205.21;" xml:space="preserve">
<path d="M184.056,201.262H18.295c-0.887,0-1.668-0.584-1.918-1.436c-0.25-0.851,0.089-1.765,0.835-2.246
	c10.761-6.932,23.797-12.386,38.126-16.105c-0.11-0.258-0.167-0.543-0.158-0.843c0.011-0.357,1.061-36.142-2.008-70.242
	C50.651,82.367,43.36,51.123,40.8,40.722c-0.313-0.189-0.574-0.464-0.748-0.803c-0.027-0.054-0.052-0.109-0.075-0.165
	c-0.145,0.008-0.297-0.005-0.445-0.033c0.785,3.679,1.99,13.047-0.391,30.572c-3.199,23.544-20.877,35.854-21.628,36.366
	c-0.525,0.358-1.189,0.444-1.789,0.236c-0.6-0.21-1.063-0.692-1.25-1.3c-0.298-0.968-7.233-23.908-2.174-41.488l0,0
	c0.03-0.103,0.06-0.206,0.09-0.308c-0.575,0.152-1.214,0.045-1.724-0.345c-0.182-0.139-4.481-3.45-7.256-7.932
	C1.479,52.401-1.949,41.345,1.423,33.76c0.905-2.036,2.24-3.67,3.951-4.861c0.026-0.021,0.053-0.042,0.081-0.061
	c1.646-1.168,16.319-11.308,24.34-7.968c2.498,1.041,4.591,2.965,6.293,5.138c-0.167-2.951-0.05-6.159,0.636-9.284
	c0.87-3.965,3.953-7.153,8.682-8.975c6.733-2.595,15.686-2.007,20.379,1.337c7.259,5.172,7.639,11.37,7.658,12.044
	c0,0.019,0.001,0.038,0.001,0.057c0,0.003,0,0.003,0,0.005c0,0.29-0.061,0.566-0.171,0.815c-0.102,0.23-0.25,0.445-0.442,0.63
	c-0.063,0.06-0.129,0.116-0.2,0.168c0,0.001-0.002,0.002-0.003,0.002c-0.13,0.096-0.27,0.174-0.414,0.234l0,0
	c-0.004,0.001-0.006,0.002-0.007,0.003c0,0,0,0,0,0c-0.173,0.071-0.358,0.119-0.552,0.139c-0.002,0-0.003-0.002-0.004,0
	c-0.083,0.008-0.167,0.014-0.251,0.01c-0.262-0.006-0.511-0.062-0.739-0.159c-0.001,0-0.001,0.001-0.002-0.001
	c-0.244-0.104-0.471-0.258-0.664-0.462c0,0-0.001-0.001-0.003-0.003c-0.009-0.009-0.018-0.02-0.027-0.029
	c-0.885-0.961-8.728-8.929-17.981-0.452c-4.172,3.823-5.589,7.72-6.069,9.875c5.562-4.817,14.589-10.342,24.227-6.906
	c21.954,7.83,20.719,41.619,20.656,43.053c-0.038,0.848-0.606,1.58-1.419,1.826c-0.811,0.248-1.691-0.048-2.193-0.733
	c-0.133-0.181-13.372-18.187-22.835-23.415c-5.801-3.205-12.969-4.274-17.621-4.623c4.539,8.485,13.072,26.496,20.408,53.638
	c10.327,38.21,12.046,81.451,12.063,81.883c0.005,0.124-0.002,0.246-0.019,0.364c13.215-1.543,27.128-1.676,40.439-0.38
	c0.151-3.122,0.671-12.454,1.979-25.066c-0.002-0.1,0.003-0.202,0.016-0.304c0.009-0.074,0.022-0.146,0.039-0.216
	c0.801-7.639,1.89-16.452,3.357-25.799c0.004-0.088,0.013-0.177,0.028-0.266c0.012-0.069,0.027-0.136,0.046-0.202
	c1.206-7.628,2.665-15.603,4.427-23.584c0.013-0.083,0.031-0.164,0.054-0.243c1.002-4.525,2.104-9.055,3.31-13.519
	c6.321-23.387,13.817-40.437,19.364-51.158c-0.422,0.077-0.856,0.117-1.301,0.117c-4.01,0-7.271-3.262-7.271-7.271
	c0-0.978,0.193-1.91,0.545-2.763c-4.197,0.653-8.641,1.662-12.59,3.218c-12.088,4.761-28.882,21.05-29.05,21.214
	c-0.562,0.546-1.391,0.714-2.116,0.434c-0.729-0.281-1.229-0.962-1.276-1.742c-0.02-0.32-1.662-32.105,25.961-39.131l0,0
	c16.935-4.305,32.543,7.734,36.085,10.722c1.044-3.028,5.088-13.385,12.451-16.453c8.478-3.528,24.033,7.227,25.779,8.465
	c0.032,0.023,0.063,0.047,0.095,0.071c1.798,1.254,3.201,2.974,4.153,5.115c3.569,8.029-0.062,19.735-2.107,23.04
	c-2.94,4.75-7.497,8.259-7.689,8.406c-0.197,0.151-0.414,0.26-0.64,0.327c0.01,0.026,0.02,0.053,0.029,0.079
	c6.903,18.687-0.46,43.742-0.776,44.799c-0.174,0.579-0.601,1.049-1.16,1.277c-0.561,0.229-1.193,0.191-1.723-0.101
	c-0.927-0.512-22.746-12.826-27.655-37.979c-1.412-7.239-2.125-13.195-2.422-18.012c-3.952,15.76-9.568,41.004-11.68,64.461
	c-3.083,34.254-2.402,70.045-2.245,76.521c14.872,3.724,28.399,9.302,39.504,16.456c0.746,0.48,1.086,1.395,0.836,2.246
	C185.724,200.677,184.943,201.262,184.056,201.262z M25.573,197.262h151.205c-20.371-11.169-47.459-17.486-75.603-17.486
	S45.944,186.092,25.573,197.262z M59.326,157.638c0.121,12.49-0.1,21.367-0.141,22.888c5.248-1.229,10.655-2.231,16.171-2.992
	c-0.091-0.216-0.146-0.453-0.155-0.701c-0.016-0.428-1.721-43.228-11.927-80.988c-5.269-19.494-11.237-34.317-15.791-44.116
	c3.163,14.168,7.5,35.903,9.484,56.288l3.995-0.742c1.084-0.2,2.13,0.515,2.332,1.601c0.202,1.086-0.515,2.13-1.601,2.332
	l-4.362,0.811c0.508,5.954,0.894,11.939,1.186,17.756l5.479-1.096c1.086-0.22,2.137,0.486,2.354,1.568
	c0.217,1.083-0.485,2.137-1.568,2.354l-6.074,1.216c0.306,7.029,0.479,13.746,0.57,19.784l8.104-1.221
	c1.087-0.166,2.111,0.587,2.275,1.68s-0.587,2.111-1.68,2.275L59.326,157.638z M123.603,177.099
	c6.147,0.732,12.172,1.761,18.01,3.071c-0.188-8.723-0.678-43.02,2.283-75.925c2.196-24.399,8.136-50.679,12.135-66.462
	c-5.478,10.544-13.031,27.557-19.295,50.73c-1.016,3.759-1.957,7.567-2.825,11.379l5.499,0.849c1.092,0.168,1.841,1.19,1.672,2.282
	c-0.168,1.092-1.191,1.84-2.281,1.671l-5.758-0.888c-1.449,6.73-2.685,13.44-3.735,19.92l7.367,1.275
	c1.089,0.188,1.818,1.223,1.63,2.312c-0.188,1.088-1.224,1.82-2.312,1.63l-7.308-1.264c-1.216,7.938-2.154,15.45-2.876,22.132
	l10.774,1.355c1.096,0.138,1.872,1.138,1.734,2.234c-0.139,1.097-1.149,1.872-2.234,1.735l-10.689-1.344
	C124.193,165.75,123.728,174.439,123.603,177.099z M14.222,64.661l1.922,0.553c-3.732,12.97-0.282,29.725,1.377,36.34
	c4.72-4.064,15.364-14.924,17.656-31.798c2.123-15.622,1.289-24.436,0.621-28.249c-4.714,2.691-15.784,10.258-19.655,23.707
	L14.222,64.661z M163.968,26.618c-0.655,3.883-1.436,13.476,1.939,30.769c3.668,18.791,17.927,30.094,23.457,33.848
	c1.652-6.785,5.389-25.59,0.18-39.691C184.039,36.637,169.412,29.008,163.968,26.618z M46.269,37.113
	c4.99,0.311,13.213,1.416,20.015,5.173c7.045,3.892,15.556,13.694,20.361,19.678c-0.669-9.659-3.809-28.133-17.848-33.14
	C59.697,25.579,50.708,32.712,46.269,37.113z M7.647,32.181c-1.112,0.777-1.962,1.84-2.569,3.204
	c-2.6,5.849,0.036,15.291,1.733,18.033c2.391,3.862,6.244,6.829,6.283,6.858c0.145,0.111,0.271,0.237,0.376,0.376
	c1.651-4.219,3.901-7.822,6.349-10.855c-0.309-0.924-1.394-4.677-0.56-9.681c0.576-3.458,2.844-6.251,4.71-8.029
	c-4.139-1.31-8.646-2.047-12.818-1.29c-1.284,0.233-2.386,0.649-3.313,1.254C7.816,32.067,7.793,32.084,7.77,32.1
	C7.73,32.128,7.689,32.156,7.647,32.181z M186.58,38.488c1.911,2.351,3.659,4.983,5.105,7.921c0.873-0.705,4.295-3.59,6.511-7.169
	c1.816-2.935,4.638-13.044,1.853-19.309c-0.654-1.472-1.572-2.621-2.771-3.459c-0.046-0.028-0.092-0.057-0.136-0.088
	c-0.032-0.022-0.063-0.045-0.095-0.067c-0.998-0.646-2.18-1.091-3.557-1.341c-3.845-0.698-7.948-0.213-11.835,0.825
	c2.32,2.114,5.362,5.636,6.098,10.048c1.146,6.872-0.681,11.773-0.759,11.979C186.898,38.08,186.756,38.303,186.58,38.488z
	 M28.265,33.679c-1.272,0.96-4.492,3.69-5.059,7.094c-0.358,2.15-0.283,4.011-0.104,5.378c4.977-4.974,10.043-7.842,12.199-8.936
	C33.476,36.153,31.038,34.852,28.265,33.679z M126.127,14.263c-18.426,4.687-22.127,22.03-22.824,30.413
	c5.741-5.195,17.382-15.055,26.853-18.786c8.352-3.29,18.438-4.285,24.666-4.574C148.84,17.259,137.609,11.341,126.127,14.263
	L126.127,14.263z M165.736,23.011c3.842,1.68,11.329,5.512,17.866,12.155c0.38-1.641,0.853-4.779,0.206-8.66
	c-0.767-4.599-5.253-8.203-6.668-9.238C172.17,19.154,167.963,21.605,165.736,23.011z M54.608,10.138
	c-2.663,0-5.417,0.438-7.763,1.343c-2.429,0.936-5.479,2.754-6.213,6.1c-1.417,6.457-0.023,13.591,0.87,17.082
	c0.144-0.024,0.288-0.033,0.43-0.025c-0.17-0.297-0.267-0.643-0.264-1.01c0.002-0.309,0.149-7.651,7.613-14.49
	c3.743-3.429,7.782-5.073,11.985-4.875c2.167,0.1,4.117,0.682,5.775,1.435c-0.854-1.089-2.01-2.24-3.577-3.356
	C61.429,10.892,58.098,10.138,54.608,10.138z M17.328,26.619c7.011,0.653,13.835,3.72,18.359,6.201
	c-1.646-3.212-4.148-6.89-7.429-8.257C25.79,23.532,21.559,24.705,17.328,26.619z M150.938,25.884c-1.804,0-3.271,1.468-3.271,3.272
	c0,1.804,1.468,3.271,3.271,3.271s3.271-1.468,3.271-3.271C154.21,27.352,152.742,25.884,150.938,25.884z M157.067,25.246
	c0.26,0.406,0.48,0.839,0.656,1.295c0.302-0.489,0.578-0.931,0.831-1.327C158.119,25.221,157.621,25.231,157.067,25.246z
	 M177.592,7.936c-0.895,0-1.697,0.128-2.377,0.412c-3.651,1.521-6.4,5.697-8.157,9.217c4.894-2.721,12.526-6.213,20.318-6.824
	C183.861,9.115,180.304,7.936,177.592,7.936z"/>
<g>
</g>
<g>
</g>
<g>
</g>
<g>
</g>
<g>
</g>
<g>
</g>
<g>
</g>
<g>
</g>
<g>
</g>
<g>
</g>
<g>
</g>
<g>
</g>
<g>
</g>
<g>
</g>
<g>
</g>
</svg>
